# xmcd
#
# Track frame offsets: 
#        150
#        33676
#        63001
#        94052
#        119328
#        147379
#        177605
#        214655
#        240756
#        271957
#        301733
#
# Disc length: 4240 seconds
#
# Revision: 4
# Processed by: cddbd v1.5.2PL0 Copyright (c) Steve Scherf et al.
# Submitted via: ExactAudioCopy v1.0b1
#
DISCID=95108e0b
DTITLE=Steve Kuhn Trio - Pavane for A Dead Princess
DYEAR=2005
DGENRE=Jazz
TTITLE0=Im Always Chasing Rainbows - (Chopin_Fantasy Impromptu)
TTITLE1=Pavane For A Dead Princess (Ravel)
TTITLE2=Moon Love (Tschaikowski_Symphonie Nr. 5_2. Satz)
TTITLE3=One Road Rose Forever (Grieg_Ich liebe Dich)
TTITLE4=Swan Lake (Tschaikowski_Schwanensee)
TTITLE5=Nocturne In E-flat Major Op 9, No.2 (Chopin)
TTITLE6=Reverie (Debussy)
TTITLE7=Prelude In E Minor Op. 28, No.4 (Chopin)
TTITLE8=Full Moon And Empty Arms (Rachmaninoff_Klavierkonzert Nr. 2_3.
TTITLE8=Satz)
TTITLE9=Pavane (Faure)
TTITLE10=Lullaby (Brahms_Wiegenlied)
EXTD=YEAR: 2006
EXTT0=
EXTT1=
EXTT2=
EXTT3=
EXTT4=
EXTT5=
EXTT6=
EXTT7=
EXTT8=
EXTT9=
EXTT10=
PLAYORDER=
